<svg width="29" height="30" viewBox="0 0 29 30" fill="none" xmlns="http://www.w3.org/2000/svg">
<path d="M3.6681 26.5623L3.7931 26.5623L3.7931 26.4373L3.79309 2.67856L5.41897 4.30443C5.62202 4.50749 5.95124 4.50749 6.1543 4.30443C6.35735 4.10138 6.35735 3.77216 6.1543 3.5691L3.6408 1.0556C3.43775 0.85255 3.10853 0.85255 2.90547 1.0556L0.391976 3.5691C0.18892 3.77216 0.18892 4.10138 0.391976 4.30443C0.595033 4.50749 0.924251 4.50749 1.12731 4.30443L2.75318 2.67856L2.75318 26.4373L2.75318 26.5623L2.87818 26.5623L3.6681 26.5623Z" fill="white" stroke="white" stroke-width="0.25"/>
<path d="M2.7522 26.8314V26.9564H2.8772L26.7603 26.9564L25.1262 28.5821C24.922 28.7852 24.922 29.1147 25.1262 29.3179C25.33 29.5206 25.6602 29.5206 25.864 29.3179L28.3906 26.8044C28.5947 26.6013 28.5947 26.2717 28.3906 26.0686L25.864 23.5551C25.6602 23.3523 25.33 23.3523 25.1262 23.5551C24.922 23.7582 24.922 24.0878 25.1262 24.2909L26.7603 25.9165L2.8772 25.9165H2.7522V26.0415V26.8314Z" fill="white" stroke="white" stroke-width="0.25"/>
</svg>
